PathFileType	4	(X/Y/Z)	/Users/itak/Documents/Research/Walk-IL/dataset/trc/00231_00009.trc
DataRate	CameraRate	NumFrames	NumMarkers	Units	OrigDataRate	OrigDataStartFrame	OrigNumFrames
100.000000	100.000000	4	53	mm	100.000000	208	833
Frame#	Time	RPSI			LPSI			L3			STRN			T10			C7			CLAV			RBAK			LBAK			LSHO			LUPA			LAEL			LAOL			LWTS			LWPS			LFRA			LIFD			LHPS			LHTS			RSHO			RUPA			RAEL			RAOL			RWTS			RWPS			RFRA			RIFD			RHTS			RHPS			RBHD			LFHD			RFHD			LBHD			LHIP			RHIP			RASI			LASI			LKNE			LTHI			LANK			LTIP			LTOE			LMT1			LMT5			LHEE			RKNE			RTHI			RANK			RTIP			RTOE			RMT1			RMT5			RHEE			
		X1	Y1	Z1	X2	Y2	Z2	X3	Y3	Z3	X4	Y4	Z4	X5	Y5	Z5	X6	Y6	Z6	X7	Y7	Z7	X8	Y8	Z8	X9	Y9	Z9	X10	Y10	Z10	X11	Y11	Z11	X12	Y12	Z12	X13	Y13	Z13	X14	Y14	Z14	X15	Y15	Z15	X16	Y16	Z16	X17	Y17	Z17	X18	Y18	Z18	X19	Y19	Z19	X20	Y20	Z20	X21	Y21	Z21	X22	Y22	Z22	X23	Y23	Z23	X24	Y24	Z24	X25	Y25	Z25	X26	Y26	Z26	X27	Y27	Z27	X28	Y28	Z28	X29	Y29	Z29	X30	Y30	Z30	X31	Y31	Z31	X32	Y32	Z32	X33	Y33	Z33	X34	Y34	Z34	X35	Y35	Z35	X36	Y36	Z36	X37	Y37	Z37	X38	Y38	Z38	X39	Y39	Z39	X40	Y40	Z40	X41	Y41	Z41	X42	Y42	Z42	X43	Y43	Z43	X44	Y44	Z44	X45	Y45	Z45	X46	Y46	Z46	X47	Y47	Z47	X48	Y48	Z48	X49	Y49	Z49	X50	Y50	Z50	X51	Y51	Z51	X52	Y52	Z52	X53	Y53	Z53	

209	2.08	572.5291137695312	1034.606323242188	663.8385620117188	470.8934020996094	1029.722290039062	597.8439331054688	515.93994140625	1120.932006835938	623.3212890625	643.7034912109375	1282.256469726562	391.1109924316406	530.0860595703125	1247.581787109375	627.3358764648438	574.1828002929688	1501.486083984375	547.4188842773438	641.4525146484375	1401.753784179688	406.8913269042969	600.02099609375	1369.157836914062	660.6209106445312	464.6934204101562	1468.8134765625	519.3302001953125	451.0121765136719	1462.701782226562	413.9793395996094	356.1104125976562	1351.338012695312	427.9108276367188	318.4479370117188	1144.288208007812	446.9891357421875	338.7103271484375	1140.642700195312	532.3171997070312	390.8561706542969	900.618896484375	414.5357971191406	306.4556884765625	887.0912475585938	416.3468322753906	306.3368530273438	1034.79296875	438.74853515625	377.0438232421875	710.0565795898438	445.5888366699219	312.0080871582031	797.0867309570312	416.4277038574219	376.6998901367188	794.4528198242188	393.1755676269531	747.3123779296875	1450.419677734375	570.9330444335938	798.8137817382812	1388.213745117188	619.07958984375	844.7496948242188	1113.75537109375	664.9690551757812	750.8172607421875	1098.503173828125	661.446044921875	883.2249145507812	905.5353393554688	519.2664794921875	919.9944458007812	892.2239990234375	594.502685546875	872.9124755859375	1047.327026367188	645.8887939453125	884.2073364257812	722.5732421875	506.8023071289062	925.0416259765625	788.559814453125	487.7037048339844	947.0772705078125	788.1817016601562	556.3110961914062	656.2373657226562	1646.362548828125	525.81982421875	642.5325317382812	1682.84033203125	302.3222045898438	735.7185668945312	1677.618408203125	338.6157531738281	548.6121826171875	1657.153686523438	435.3738098144531	413.070068359375	964.79150390625	436.008544921875	714.362060546875	992.1210327148438	644.1900634765625	740.11474609375	1027.222534179688	540.2916259765625	509.658935546875	1006.533447265625	382.3844909667969	562.748779296875	512.8343505859375	305.1177368164062	495.6541137695312	641.971923828125	335.8585815429688	635.3502197265625	29.64890670776367	309.5751037597656	582.85009765625	281.4156188964844	316.1397399902344	730.4658203125	106.7777862548828	132.7368316650391	759.420166015625	82.79446411132812	202.3919830322266	649.41748046875	59.34157180786133	187.5130615234375	669.9558715820312	29.72083854675293	383.2252807617188	651.3366088867188	507.7501831054688	663.7196655273438	729.1448974609375	765.8121337890625	623.139892578125	527.4217529296875	35.58517074584961	762.8179931640625	627.6109619140625	390.9443359375	668.322998046875	653.5327758789062	38.14047622680664	587.7183227539062	584.2957763671875	37.93132400512695	594.99658203125	626.9234619140625	30.56704139709473	709.9775390625	443.0193786621094	40.11980819702148	763.0465698242188	
210	2.09	576.3551635742188	1033.069580078125	657.5753173828125	474.56591796875	1027.9755859375	592.1759643554688	519.4483642578125	1119.400146484375	617.5906372070312	646.0610961914062	1281.108642578125	385.0940856933594	533.4769897460938	1245.998413085938	621.8488159179688	576.8666381835938	1500.074829101562	541.90966796875	643.6790161132812	1400.579833984375	400.982177734375	603.4727172851562	1367.795532226562	655.20751953125	467.3838500976562	1467.189697265625	514.2914428710938	453.078125	1461.157592773438	409.0128479003906	358.4355163574219	1349.628540039062	423.9367980957031	321.1207580566406	1142.718139648438	444.5695495605469	342.9522399902344	1139.280395507812	529.5305786132812	391.6646118164062	898.348876953125	412.3152465820312	307.2185363769531	885.4734497070312	415.7602844238281	308.35693359375	1033.244262695312	437.1947021484375	376.9253234863281	708.0299072265625	445.2942810058594	312.0472106933594	795.4573364257812	416.4973449707031	376.3225402832031	792.0621948242188	392.1808166503906	750.1448974609375	1449.231567382812	564.6436767578125	801.9165649414062	1387.0068359375	612.5355224609375	848.4360961914062	1112.538696289062	657.9468383789062	754.4749755859375	1097.347534179688	655.2440795898438	885.4013061523438	904.6649780273438	511.3457336425781	922.9429931640625	891.1129760742188	586.1942749023438	876.44140625	1046.11376953125	638.469482421875	886.0660400390625	721.7833862304688	498.4687194824219	926.7945556640625	787.7193603515625	479.0766906738281	949.5442504882812	787.1450805664062	547.4532470703125	658.71923828125	1645.079956054688	520.0628662109375	643.5724487304688	1681.825439453125	296.6835327148438	737.0086059570312	1676.773559570312	332.4324951171875	550.5150146484375	1655.7216796875	430.2984313964844	416.5150756835938	962.9602661132812	430.4144897460938	718.2741088867188	990.9324340820312	637.7144165039062	743.7891235351562	1026.234375	533.8176879882812	512.9264526367188	1005.170349121094	376.6124267578125	565.746826171875	511.1143188476562	300.0234069824219	498.6167907714844	640.0175170898438	330.7967529296875	640.7953491210938	28.83518981933594	300.6595153808594	587.2190551757812	279.8941345214844	309.2327880859375	732.4961547851562	106.7285385131836	122.3133544921875	762.8753662109375	82.53736877441406	191.3800201416016	652.6054077148438	58.88491058349609	178.4955596923828	676.778564453125	28.83495903015137	373.7429809570312	653.676025390625	507.3678588867188	659.9041137695312	732.6210327148438	764.750732421875	617.7604370117188	527.4586181640625	36.10471725463867	762.6443481445312	629.3663940429688	390.6365356445312	665.4859008789062	653.5231323242188	38.11237335205078	587.6879272460938	584.36474609375	38.00432205200195	595.0244140625	626.9710083007812	30.51780319213867	710.0103149414062	443.0545043945312	41.25800323486328	763.0047607421875	
211	2.1	580.1039428710938	1031.469848632812	651.0909423828125	478.2038269042969	1026.19775390625	586.3262329101562	522.8970336914062	1117.820556640625	611.7012329101562	648.3991088867188	1279.951293945312	378.9570007324219	536.8068237304688	1244.352172851562	616.1507568359375	579.4851684570312	1498.646728515625	536.3153076171875	645.8560180664062	1399.39208984375	394.9736022949219	606.7716064453125	1366.37451171875	649.6648559570312	469.993408203125	1465.527465820312	509.1318359375	455.0946655273438	1459.58203125	403.9248352050781	360.7290649414062	1347.874267578125	419.8055725097656	323.7978515625	1141.098754882812	441.921630859375	347.2422790527344	1137.85205078125	526.4830322265625	392.4579772949219	896.0565795898438	409.8880004882812	308.0207824707031	883.810546875	414.9794311523438	310.39453125	1031.649047851562	435.3973083496094	376.8735961914062	705.9765014648438	444.5447692871094	312.1536560058594	793.8136596679688	416.302490234375	375.9647827148438	789.6940307617188	390.8682250976562	752.88330078125	1447.994262695312	558.3195190429688	804.9013671875	1385.738037109375	605.9743041992188	851.9595336914062	1111.26171875	650.9358520507812	757.982421875	1096.125244140625	648.9911499023438	887.4906005859375	903.73193359375	503.4806213378906	925.746826171875	889.9373779296875	577.953369140625	879.82421875	1044.84033203125	631.07958984375	887.8260498046875	720.9216918945312	490.1675109863281	928.4580688476562	786.823974609375	470.5223388671875	951.8887329101562	786.0475463867188	538.6780395507812	661.1444702148438	1643.753662109375	514.263427734375	644.58544921875	1680.8310546875	291.0093994140625	738.2538452148438	1675.944213867188	326.2276306152344	552.3544311523438	1654.265869140625	425.127685546875	419.9772033691406	961.0758666992188	424.6394348144531	722.1444702148438	989.7409057617188	631.0845336914062	747.453857421875	1025.237426757812	527.193359375	516.2327270507812	1003.747314453125	370.6638488769531	568.7859497070312	509.4061584472656	294.6824951171875	501.7069091796875	638.0831909179688	325.4931945800781	645.3890991210938	28.04332733154297	293.0335083007812	591.284423828125	278.3131103515625	302.6596069335938	734.1170654296875	105.6868896484375	113.0873565673828	765.7572021484375	81.47885894775391	181.6604766845703	655.2275390625	57.88022994995117	170.7115936279297	682.6727294921875	28.17413520812988	365.5909729003906	656.166748046875	506.9447021484375	655.869384765625	736.2192993164062	763.6812133789062	612.2562255859375	527.5304565429688	36.66888046264648	762.4678344726562	631.2740478515625	390.2817687988281	662.4507446289062	653.513916015625	38.08864974975586	587.6566772460938	584.4488525390625	38.09070205688477	595.062255859375	627.0277709960938	30.46195411682129	710.0394287109375	443.1141357421875	42.48425674438477	762.9788208007812	
212	2.11	583.8058471679688	1029.828247070312	644.4136352539062	481.8161010742188	1024.4365234375	580.3216552734375	526.3090209960938	1116.202392578125	605.651123046875	650.7181396484375	1278.802978515625	372.7007751464844	540.1007690429688	1242.662841796875	610.2477416992188	582.0520629882812	1497.229248046875	530.6470336914062	647.9813232421875	1398.209594726562	388.8651733398438	609.9074096679688	1364.904541015625	643.9494018554688	472.5241088867188	1463.840698242188	503.8595581054688	457.0610656738281	1457.987426757812	398.7238159179688	362.9901733398438	1346.084350585938	415.5094604492188	326.4765014648438	1139.433471679688	439.0000610351562	351.5296630859375	1136.367431640625	523.1469116210938	393.2565307617188	893.7515869140625	407.2535705566406	308.8726196289062	882.1019897460938	413.9623718261719	312.4573669433594	1030.010498046875	433.3121643066406	376.9021606445312	703.9089965820312	443.3748168945312	312.355224609375	792.1490478515625	415.8126525878906	375.6731262207031	787.3504028320312	389.2546691894531	755.5431518554688	1446.729248046875	551.9581298828125	807.779541015625	1384.424194335938	599.3900146484375	855.3140258789062	1109.939331054688	643.9256591796875	761.3297119140625	1094.850219726562	642.6685791015625	889.5020751953125	902.7418212890625	495.6777954101562	928.4081420898438	888.7074584960938	569.7957763671875	883.0504760742188	1043.51953125	623.7161254882812	889.4882202148438	719.9896240234375	481.9113159179688	930.0503540039062	785.8795776367188	462.0573120117188	954.1193237304688	784.896484375	530.0081787109375	663.515625	1642.40771484375	508.4164428710938	645.5786743164062	1679.87353515625	285.2888488769531	739.4590454101562	1675.144409179688	319.9941101074219	554.1454467773438	1652.816284179688	419.8559265136719	423.4595642089844	959.2001342773438	418.6835632324219	725.9940795898438	988.546142578125	624.2868041992188	751.1096801757812	1024.236206054688	520.4021606445312	519.5604248046875	1002.298461914062	364.5506896972656	571.8746337890625	507.7634887695312	289.071044921875	504.9252319335938	636.2314453125	319.926025390625	649.1510009765625	27.33209609985352	286.7798156738281	595.0720825195312	276.7070922851562	296.435791015625	735.4611206054688	103.56298828125	105.1184997558594	768.15625	79.54276275634766	173.3173980712891	657.3743286132812	56.31546401977539	164.2199401855469	687.6614379882812	27.77861785888672	358.8643798828125	658.80859375	506.473388671875	651.5924072265625	739.9442138671875	762.60888671875	606.5944213867188	527.6544799804688	37.29843902587891	762.2903442382812	633.3333129882812	389.8778991699219	659.199462890625	653.5068359375	38.0677604675293	587.6236572265625	584.549560546875	38.18696594238281	595.1107177734375	627.0902709960938	30.3991813659668	710.060302734375	443.2120971679688	43.80785751342773	762.974853515625	
